<svg width="47" height="48" viewBox="0 0 47 48" fill="none" xmlns="http://www.w3.org/2000/svg">
<path d="M32.3678 25.7997H15.0779C14.1918 25.7997 13.457 25.0649 13.457 24.1788C13.457 23.2927 14.1918 22.5578 15.0779 22.5578H32.3678C33.2539 22.5578 33.9887 23.2927 33.9887 24.1788C33.9887 25.0649 33.2539 25.7997 32.3678 25.7997Z" fill="#292D32"/>
<path d="M23.7229 34.4446C22.8368 34.4446 22.1019 33.7098 22.1019 32.8237V15.5338C22.1019 14.6477 22.8368 13.9129 23.7229 13.9129C24.609 13.9129 25.3438 14.6477 25.3438 15.5338V32.8237C25.3438 33.7098 24.609 34.4446 23.7229 34.4446Z" fill="#292D32"/>
<path d="M30.2066 47.412H17.2392C5.50363 47.412 0.489563 42.398 0.489563 30.6624V17.695C0.489563 5.95951 5.50363 0.945435 17.2392 0.945435H30.2066C41.9421 0.945435 46.9562 5.95951 46.9562 17.695V30.6624C46.9562 42.398 41.9421 47.412 30.2066 47.412ZM17.2392 4.18729C7.27585 4.18729 3.73142 7.73172 3.73142 17.695V30.6624C3.73142 40.6258 7.27585 44.1702 17.2392 44.1702H30.2066C40.1699 44.1702 43.7143 40.6258 43.7143 30.6624V17.695C43.7143 7.73172 40.1699 4.18729 30.2066 4.18729H17.2392Z" fill="#292D32"/>
</svg>
