<svg width="47" height="48" viewBox="0 0 47 48" fill="none" xmlns="http://www.w3.org/2000/svg">
<path d="M32.9845 0.945435H13.5053C5.04414 0.945435 0 5.98957 0 14.4507V33.9067C0 42.3911 5.04414 47.4352 13.5053 47.4352H32.9612C41.4224 47.4352 46.4665 42.3911 46.4665 33.9299V14.4507C46.4898 5.98957 41.4456 0.945435 32.9845 0.945435ZM32.5428 25.9337H24.9883V33.4883C24.9883 34.4413 24.1979 35.2316 23.2449 35.2316C22.2918 35.2316 21.5015 34.4413 21.5015 33.4883V25.9337H13.9469C12.9939 25.9337 12.2036 25.1434 12.2036 24.1903C12.2036 23.2373 12.9939 22.447 13.9469 22.447H21.5015V14.8924C21.5015 13.9393 22.2918 13.149 23.2449 13.149C24.1979 13.149 24.9883 13.9393 24.9883 14.8924V22.447H32.5428C33.4959 22.447 34.2862 23.2373 34.2862 24.1903C34.2862 25.1434 33.4959 25.9337 32.5428 25.9337Z" fill="#292D32"/>
</svg>
