<svg width="39" height="37" viewBox="0 0 39 37" fill="none" xmlns="http://www.w3.org/2000/svg">
<path d="M12.8647 29.889H11.9708C4.81963 29.889 1.24403 28.2187 1.24403 19.8673V11.5159C1.24403 4.83484 4.81963 1.49429 11.9708 1.49429H26.2732C33.4244 1.49429 37 4.83484 37 11.5159V19.8673C37 26.5484 33.4244 29.889 26.2732 29.889H25.3793C24.8251 29.889 24.2888 30.1395 23.9491 30.5571L21.2674 33.8976C20.0874 35.3675 18.1566 35.3675 16.9767 33.8976L14.295 30.5571C14.0089 30.1896 13.3474 29.889 12.8647 29.889Z" stroke="#292D32" stroke-width="2.5" stroke-miterlimit="10" stroke-linecap="round" stroke-linejoin="round"/>
<path d="M26.2669 16.5268H26.2829" stroke="#292D32" stroke-width="2.92897" stroke-linecap="round" stroke-linejoin="round"/>
<path d="M19.114 16.5268H19.1301" stroke="#292D32" stroke-width="2.92897" stroke-linecap="round" stroke-linejoin="round"/>
<path d="M11.961 16.5268H11.9771" stroke="#292D32" stroke-width="2.92897" stroke-linecap="round" stroke-linejoin="round"/>
</svg>
