<svg width="34" height="36" viewBox="0 0 34 36" fill="none" xmlns="http://www.w3.org/2000/svg">
<path d="M32.7033 9.17574C32.6684 9.17574 32.6161 9.17574 32.5638 9.17574C23.3389 8.28831 14.1314 7.95342 5.01106 8.84086L1.45363 9.17574C0.721214 9.24272 0.0759926 8.7404 0.00623891 8.03714C-0.0635148 7.33389 0.459638 6.7311 1.17461 6.66413L4.73205 6.32924C14.0093 5.42506 23.4086 5.77669 32.8254 6.66413C33.5404 6.7311 34.0635 7.35064 33.9938 8.03714C33.9414 8.69016 33.366 9.17574 32.7033 9.17574Z" fill="#FF0000"/>
<path d="M10.9071 7.48462C10.8374 7.48462 10.7676 7.48462 10.6804 7.46787C9.98289 7.35066 9.49461 6.69764 9.61668 6.02788L10.0003 3.8344C10.2793 2.22697 10.663 0 14.7261 0H19.2949C23.3755 0 23.7592 2.31069 24.0207 3.85114L24.4044 6.02788C24.5265 6.71439 24.0382 7.36741 23.3406 7.46787C22.6257 7.58508 21.9456 7.11625 21.8409 6.44648L21.4573 4.26975C21.2132 2.81301 21.1608 2.52836 19.3124 2.52836H14.7435C12.8951 2.52836 12.8602 2.76278 12.5986 4.253L12.1976 6.42974C12.0929 7.04927 11.5349 7.48462 10.9071 7.48462Z" fill="#FF0000"/>
<path d="M22.6077 36H11.4122C5.32621 36 5.08208 32.7684 4.89025 30.1563L3.75676 13.2949C3.70444 12.6084 4.26247 12.0056 4.97745 11.9554C5.70986 11.9219 6.3202 12.441 6.37252 13.1275L7.50602 29.9888C7.69784 32.534 7.76759 33.4884 11.4122 33.4884H22.6077C26.2698 33.4884 26.3395 32.534 26.5139 29.9888L27.6474 13.1275C27.6997 12.441 28.3275 11.9219 29.0425 11.9554C29.7575 12.0056 30.3155 12.5917 30.2632 13.2949L29.1297 30.1563C28.9378 32.7684 28.6937 36 22.6077 36Z" fill="#FF0000"/>
<path d="M19.9042 26.7906H14.0972C13.3822 26.7906 12.7893 26.2213 12.7893 25.5348C12.7893 24.8483 13.3822 24.279 14.0972 24.279H19.9042C20.6192 24.279 21.2121 24.8483 21.2121 25.5348C21.2121 26.2213 20.6192 26.7906 19.9042 26.7906Z" fill="#FF0000"/>
<path d="M21.3689 20.0929H12.6497C11.9347 20.0929 11.3418 19.5236 11.3418 18.8371C11.3418 18.1506 11.9347 17.5813 12.6497 17.5813H21.3689C22.0838 17.5813 22.6768 18.1506 22.6768 18.8371C22.6768 19.5236 22.0838 20.0929 21.3689 20.0929Z" fill="#FF0000"/>
</svg>
