<svg width="33" height="34" viewBox="0 0 33 34" fill="none" xmlns="http://www.w3.org/2000/svg">
<path d="M4.49938 29.8739C3.44853 28.8664 3.07538 27.2677 3.479 25.4828L4.0377 23.0045C4.24481 22.095 4.88701 20.8935 5.52911 20.2237L19.8879 5.24622C22.1463 2.89047 25.901 2.81129 28.2567 5.06972C30.6125 7.32815 30.6917 11.0828 28.4332 13.4386L14.0855 28.4045C13.4434 29.0743 12.27 29.7666 11.3701 30.0118L8.91752 30.6745C7.16329 31.1867 5.55022 30.8813 4.49938 29.8739ZM26.6077 6.81296C25.2104 5.4734 22.9712 5.52062 21.6316 6.9179L7.2839 21.8838C6.94071 22.2418 6.50503 23.043 6.39088 23.5319L5.83218 26.0102C5.61448 26.9539 5.74379 27.7205 6.17106 28.1301C6.59833 28.5398 7.38081 28.6251 8.3034 28.3794L10.7559 27.7167C11.2396 27.582 12.0217 27.1129 12.3649 26.755L26.7126 11.789C28.0522 10.3918 28.005 8.15252 26.6077 6.81296Z" fill="#292D32"/>
<path d="M24.4789 15.8527L17.6542 9.30989C17.1807 8.85599 17.1645 8.08696 17.6184 7.6135C18.0723 7.14005 18.8413 7.12383 19.3148 7.57773L26.1395 14.1205C26.613 14.5744 26.6292 15.3435 26.1753 15.8169C25.7214 16.2904 24.9524 16.3066 24.4789 15.8527Z" fill="#292D32"/>
</svg>
