<svg width="47" height="48" viewBox="0 0 47 48" fill="none" xmlns="http://www.w3.org/2000/svg">
<path d="M42.3088 11.9266L28.9398 2.57289C25.2958 0.0197791 19.7022 0.15904 16.1975 2.87462L4.56922 11.9498C2.24821 13.7602 0.414612 17.4738 0.414612 20.3982V36.4131C0.414612 42.3317 5.21911 47.1594 11.1377 47.1594H36.1581C42.0767 47.1594 46.8812 42.3549 46.8812 36.4364V20.6999C46.8812 17.5666 44.8619 13.7138 42.3088 11.9266ZM25.3886 37.8754C25.3886 38.827 24.5995 39.6161 23.6479 39.6161C22.6963 39.6161 21.9071 38.827 21.9071 37.8754V30.9123C21.9071 29.9607 22.6963 29.1716 23.6479 29.1716C24.5995 29.1716 25.3886 29.9607 25.3886 30.9123V37.8754Z" fill="#292D32"/>
</svg>
