<svg width="48" height="48" viewBox="0 0 48 48" fill="none" xmlns="http://www.w3.org/2000/svg">
<path d="M36.5739 47.2721H11.5468C5.62497 47.2721 0.827026 42.4525 0.827026 36.5307V20.516C0.827026 17.5766 2.64247 13.8809 4.9766 12.0655L16.6257 2.98827C20.1269 0.265123 25.7245 0.135449 29.3554 2.6857L42.7118 12.0439C45.2837 13.8377 47.2936 17.6847 47.2936 20.8185V36.5524C47.2936 42.4525 42.4957 47.2721 36.5739 47.2721ZM18.614 5.53853L6.96494 14.6157C5.43046 15.826 4.06888 18.5708 4.06888 20.516V36.5307C4.06888 40.6587 7.4188 44.0302 11.5468 44.0302H36.5739C40.7019 44.0302 44.0518 40.6803 44.0518 36.5524V20.8185C44.0518 18.7437 42.5605 15.8692 40.8531 14.7022L27.4967 5.34402C25.0329 3.61503 20.9698 3.70148 18.614 5.53853Z" fill="#292D32"/>
<path d="M24.0603 38.6271C23.1742 38.6271 22.4394 37.8923 22.4394 37.0062V30.5225C22.4394 29.6364 23.1742 28.9016 24.0603 28.9016C24.9464 28.9016 25.6813 29.6364 25.6813 30.5225V37.0062C25.6813 37.8923 24.9464 38.6271 24.0603 38.6271Z" fill="#292D32"/>
</svg>
