<svg width="164" height="17" viewBox="0 0 164 17" fill="none" xmlns="http://www.w3.org/2000/svg">
<path d="M0 3.75072C0 2.5979 0.368043 1.70487 1.10413 1.07163C1.85622 0.438395 2.92034 0.121776 4.2965 0.121776C5.67266 0.121776 6.79279 0.267908 7.65689 0.560172V2.75215C6.79279 2.41117 5.74467 2.24069 4.51253 2.24069C3.02435 2.24069 2.28027 2.80086 2.28027 3.9212V4.87106C2.28027 5.39064 2.37628 5.80468 2.5683 6.11318C2.77632 6.40544 3.13636 6.69771 3.64842 6.98997L6.43275 8.57307C7.7289 9.28749 8.37697 10.3672 8.37697 11.8123V13.1762C8.37697 14.3615 7.96893 15.2789 7.15283 15.9284C6.33674 16.5616 5.1846 16.8782 3.69643 16.8782C2.22426 16.8782 1.04012 16.7077 0.144017 16.3668V14.1748C1.20014 14.5645 2.31227 14.7593 3.4804 14.7593C5.22461 14.7593 6.09671 14.1585 6.09671 12.957V12.1289C6.09671 11.6418 6.0087 11.2684 5.83268 11.0086C5.65666 10.7326 5.32862 10.4647 4.84856 10.2049L2.13625 8.69484C0.712083 7.91547 0 6.75454 0 5.21203V3.75072Z" fill="black"/>
<path d="M29.9392 4.1404C29.9392 2.89016 29.2991 2.26504 28.0189 2.26504H26.1227V9.35244H28.0189C29.2991 9.35244 29.9392 8.7192 29.9392 7.45272V4.1404ZM23.8665 0.243553H28.235C29.5151 0.243553 30.4912 0.56829 31.1633 1.21777C31.8514 1.86724 32.1954 2.7765 32.1954 3.94556V7.64756C32.1954 8.81662 31.8514 9.72588 31.1633 10.3754C30.4912 11.0248 29.5151 11.3496 28.235 11.3496H26.1227V16.7564H23.8665V0.243553Z" fill="black"/>
<path d="M54.1398 4.09169C54.1398 2.76027 53.4437 2.09456 52.0515 2.09456C50.6594 2.09456 49.9633 2.76027 49.9633 4.09169V12.9083C49.9633 14.256 50.6594 14.9298 52.0515 14.9298C53.4437 14.9298 54.1398 14.256 54.1398 12.9083V4.09169ZM47.707 4.01863C47.707 2.80086 48.0671 1.82665 48.7872 1.09599C49.5233 0.36533 50.6034 0 52.0275 0C53.4677 0 54.5558 0.373448 55.2919 1.12034C56.028 1.851 56.3961 2.8171 56.3961 4.01863V13.0057C56.3961 14.2073 56.028 15.1734 55.2919 15.904C54.5558 16.6347 53.4757 17 52.0515 17C50.6274 17 49.5473 16.6347 48.8112 15.904C48.0751 15.1734 47.707 14.2073 47.707 13.0057V4.01863Z" fill="black"/>
<path d="M79.6264 0.243553V2.26504H76.5301V16.7564H74.2498V2.26504H71.1535V0.243553H79.6264Z" fill="black"/>
<path d="M94.6081 0.243553H96.8884V14.7837H101.641V16.7564H94.6081V0.243553Z" fill="black"/>
<path d="M141.601 0.243553V2.26504H138.505V16.7564H136.225V2.26504H133.128V0.243553H141.601Z" fill="black"/>
<path d="M156.583 0.243553H164V2.26504H158.839V7.40401H163.328V9.4255H158.839V14.7593H164V16.7564H156.583V0.243553Z" fill="black"/>
<path d="M118.64 0.0121782L123.187 16.5662H114.093L118.64 0.0121782Z" fill="black"/>
</svg>
