<svg width="47" height="47" viewBox="0 0 47 47" fill="none" xmlns="http://www.w3.org/2000/svg">
<path d="M46.4666 23.2333C46.4666 10.4318 36.0349 0 23.2333 0C10.4318 0 0 10.4318 0 23.2333C0 29.971 2.90416 36.0349 7.50436 40.2865C7.50436 40.3098 7.50436 40.3098 7.48112 40.333C7.71346 40.5654 7.99226 40.7512 8.22459 40.9603C8.36399 41.0765 8.48016 41.1926 8.61956 41.2856C9.03776 41.6341 9.50242 41.9593 9.94385 42.2846C10.1065 42.4008 10.2459 42.4937 10.4085 42.6099C10.85 42.9119 11.3146 43.1907 11.8025 43.4463C11.9652 43.5392 12.151 43.6554 12.3137 43.7483C12.7783 44.0039 13.2662 44.2362 13.7773 44.4453C13.9632 44.5382 14.1491 44.6312 14.3349 44.7009C14.8461 44.91 15.3572 45.0958 15.8683 45.2585C16.0542 45.3282 16.2401 45.3979 16.4259 45.4443C16.9835 45.607 17.5411 45.7464 18.0987 45.8858C18.2614 45.9322 18.424 45.9787 18.6099 46.0019C19.2604 46.1413 19.9109 46.2343 20.5847 46.304C20.6776 46.304 20.7706 46.3272 20.8635 46.3504C21.6534 46.4201 22.4434 46.4666 23.2333 46.4666C24.0232 46.4666 24.8132 46.4201 25.5799 46.3504C25.6728 46.3504 25.7657 46.3272 25.8587 46.304C26.5324 46.2343 27.183 46.1413 27.8335 46.0019C27.9961 45.9787 28.1588 45.909 28.3446 45.8858C28.9022 45.7464 29.4831 45.6302 30.0174 45.4443C30.2033 45.3746 30.3892 45.3049 30.575 45.2585C31.0862 45.0726 31.6205 44.91 32.1084 44.7009C32.2943 44.6312 32.4802 44.5382 32.666 44.4453C33.1539 44.2362 33.6418 44.0039 34.1297 43.7483C34.3156 43.6554 34.4782 43.5392 34.6409 43.4463C35.1055 43.1675 35.5702 42.9119 36.0349 42.6099C36.1975 42.5169 36.3369 42.4008 36.4995 42.2846C36.9642 41.9593 37.4056 41.6341 37.8238 41.2856C37.9632 41.1694 38.0794 41.0532 38.2188 40.9603C38.4744 40.7512 38.7299 40.5421 38.9623 40.333C38.9623 40.3098 38.9623 40.3098 38.939 40.2865C43.5624 36.0349 46.4666 29.971 46.4666 23.2333ZM34.7106 34.7803C28.4143 30.5518 18.0987 30.5518 11.7561 34.7803C10.7338 35.454 9.89739 36.244 9.20039 37.1036C5.66893 33.5257 3.485 28.6234 3.485 23.2333C3.485 12.3369 12.3369 3.485 23.2333 3.485C34.1297 3.485 42.9816 12.3369 42.9816 23.2333C42.9816 28.6234 40.7977 33.5257 37.2662 37.1036C36.5925 36.244 35.7328 35.454 34.7106 34.7803Z" fill="#292D32"/>
<path d="M23.2333 11.4533C18.424 11.4533 14.5208 15.3565 14.5208 20.1658C14.5208 24.8822 18.2149 28.7157 23.1171 28.8551H23.3262H23.4889H23.5353C28.2285 28.6924 31.9226 24.8822 31.9458 20.1658C31.9458 15.3565 28.0426 11.4533 23.2333 11.4533Z" fill="#292D32"/>
</svg>
