<svg width="48" height="47" viewBox="0 0 48 47" fill="none" xmlns="http://www.w3.org/2000/svg">
<path d="M22.6237 44.6803C34.8116 44.6803 44.692 34.7999 44.692 22.6119C44.692 10.4239 34.8116 0.54361 22.6237 0.54361C10.4356 0.54361 0.555328 10.4239 0.555328 22.6119C0.555328 34.7999 10.4356 44.6803 22.6237 44.6803Z" fill="#292D32"/>
<path d="M45.39 47C44.9719 47 44.5538 46.8374 44.2518 46.5354L39.931 42.2147C39.3038 41.5875 39.3038 40.5653 39.931 39.9149C40.5582 39.2877 41.5804 39.2877 42.2308 39.9149L46.5515 44.2357C47.1787 44.8629 47.1787 45.885 46.5515 46.5354C46.2263 46.8374 45.8082 47 45.39 47Z" fill="#292D32"/>
</svg>
