<svg width="48" height="47" viewBox="0 0 48 47" fill="none" xmlns="http://www.w3.org/2000/svg">
<path d="M22.8489 44.6019C10.6367 44.6019 0.694031 34.6592 0.694031 22.4471C0.694031 10.2349 10.6367 0.292206 22.8489 0.292206C35.0611 0.292206 45.0037 10.2349 45.0037 22.4471C45.0037 34.6592 35.0611 44.6019 22.8489 44.6019ZM22.8489 3.53438C12.4091 3.53438 3.9362 12.0289 3.9362 22.4471C3.9362 32.8652 12.4091 41.3597 22.8489 41.3597C33.2887 41.3597 41.7616 32.8652 41.7616 22.4471C41.7616 12.0289 33.2887 3.53438 22.8489 3.53438Z" fill="#292D32"/>
<path d="M45.545 46.7631C45.1343 46.7631 44.7236 46.6118 44.3994 46.2876L40.0765 41.9647C39.4497 41.3379 39.4497 40.3004 40.0765 39.6736C40.7033 39.0468 41.7408 39.0468 42.3676 39.6736L46.6905 43.9965C47.3173 44.6233 47.3173 45.6608 46.6905 46.2876C46.3663 46.6118 45.9556 46.7631 45.545 46.7631Z" fill="#292D32"/>
</svg>
