<svg width="54" height="51" viewBox="0 0 54 51" fill="none" xmlns="http://www.w3.org/2000/svg">
<path d="M27.3018 34.5515C22.1703 34.5515 18.0057 30.3869 18.0057 25.2555C18.0057 20.1241 22.1703 15.9594 27.3018 15.9594C32.4332 15.9594 36.5978 20.1241 36.5978 25.2555C36.5978 30.3869 32.4332 34.5515 27.3018 34.5515ZM27.3018 19.6778C24.2279 19.6778 21.7241 22.1816 21.7241 25.2555C21.7241 28.3294 24.2279 30.8331 27.3018 30.8331C30.3756 30.8331 32.8794 28.3294 32.8794 25.2555C32.8794 22.1816 30.3756 19.6778 27.3018 19.6778Z" fill="#292D32"/>
<path d="M35.2592 50.5154C34.7386 50.5154 34.218 50.4411 33.6974 50.3171C32.1605 49.8957 30.8714 48.9289 30.0534 47.5655L29.7559 47.0697C28.2933 44.5412 26.2854 44.5412 24.8228 47.0697L24.5501 47.5407C23.7321 48.9289 22.443 49.9205 20.9061 50.3171C19.3443 50.7385 17.733 50.5154 16.3696 49.6974L12.1058 47.2432C10.5937 46.3756 9.50293 44.9626 9.03193 43.2521C8.58572 41.5416 8.80882 39.7816 9.67645 38.2694C10.3953 37.0052 10.5937 35.8649 10.1722 35.146C9.75082 34.4271 8.68488 34.0056 7.2223 34.0056C3.60304 34.0056 0.653091 31.0557 0.653091 27.4364V23.0735C0.653091 19.4542 3.60304 16.5043 7.2223 16.5043C8.68488 16.5043 9.75082 16.0829 10.1722 15.364C10.5937 14.6451 10.4201 13.5048 9.67645 12.2405C8.80882 10.7283 8.58572 8.94351 9.03193 7.25782C9.47814 5.54735 10.5689 4.13435 12.1058 3.26672L16.3944 0.812565C19.1956 -0.848329 22.8892 0.11846 24.5749 2.96925L24.8724 3.46504C26.335 5.99356 28.3429 5.99356 29.8055 3.46504L30.0782 2.99404C31.7639 0.11846 35.4575 -0.848329 38.2835 0.837354L42.5473 3.29151C44.0594 4.15914 45.1502 5.57214 45.6212 7.28261C46.0674 8.99309 45.8443 10.7531 44.9766 12.2653C44.2577 13.5296 44.0594 14.6699 44.4808 15.3888C44.9023 16.1077 45.9682 16.5291 47.4308 16.5291C51.0501 16.5291 54 19.479 54 23.0983V27.4612C54 31.0805 51.0501 34.0304 47.4308 34.0304C45.9682 34.0304 44.9023 34.4519 44.4808 35.1707C44.0594 35.8896 44.233 37.03 44.9766 38.2942C45.8443 39.8064 46.0922 41.5912 45.6212 43.2769C45.175 44.9874 44.0842 46.4004 42.5473 47.268L38.2587 49.7222C37.3167 50.2427 36.3003 50.5154 35.2592 50.5154ZM27.3018 41.3433C29.508 41.3433 31.5655 42.7315 32.9785 45.1857L33.2512 45.6567C33.5487 46.1773 34.0445 46.5491 34.6394 46.6978C35.2344 46.8466 35.8293 46.7722 36.3251 46.4747L40.6137 43.9958C41.2582 43.624 41.754 43.0042 41.9523 42.2605C42.1506 41.5169 42.0515 40.7484 41.6796 40.1038C40.2666 37.6745 40.0931 35.1707 41.1839 33.262C42.2746 31.3532 44.5304 30.2624 47.3564 30.2624C48.9429 30.2624 50.2072 28.9982 50.2072 27.4116V23.0487C50.2072 21.487 48.9429 20.1979 47.3564 20.1979C44.5304 20.1979 42.2746 19.1072 41.1839 17.1984C40.0931 15.2896 40.2666 12.7859 41.6796 10.3565C42.0515 9.71198 42.1506 8.94351 41.9523 8.19982C41.754 7.45614 41.283 6.86119 40.6385 6.46456L36.3499 4.0104C35.284 3.36588 33.871 3.73772 33.2264 4.82846L32.9538 5.29946C31.5408 7.75361 29.4832 9.14182 27.277 9.14182C25.0707 9.14182 23.0132 7.75361 21.6002 5.29946L21.3275 4.80367C20.7078 3.76251 19.3196 3.39067 18.2536 4.0104L13.965 6.48935C13.3205 6.86119 12.8247 7.48093 12.6264 8.22461C12.4281 8.96829 12.5272 9.73677 12.8991 10.3813C14.3121 12.8107 14.4856 15.3144 13.3949 17.2232C12.3041 19.132 10.0483 20.2227 7.2223 20.2227C5.63577 20.2227 4.37151 21.487 4.37151 23.0735V27.4364C4.37151 28.9982 5.63577 30.2872 7.2223 30.2872C10.0483 30.2872 12.3041 31.378 13.3949 33.2868C14.4856 35.1955 14.3121 37.6993 12.8991 40.1286C12.5272 40.7732 12.4281 41.5416 12.6264 42.2853C12.8247 43.029 13.2957 43.624 13.9402 44.0206L18.2288 46.4747C18.7494 46.797 19.3691 46.8714 19.9393 46.7226C20.5342 46.5739 21.03 46.1773 21.3523 45.6567L21.625 45.1857C23.038 42.7563 25.0955 41.3433 27.3018 41.3433Z" fill="#292D32"/>
</svg>
